Format                         : AVI
Format/Info                    : Audio Video Interleave
File size                      : 1.03 GiB
Duration                       : 1h 22mn
Overall bit rate               : 1 777 Kbps

Video
ID                             : 0
Format                         : MPEG-4 Visual
Format profile                 : Simple@L3
Format settings, BVOP          : No
Format settings, QPel          : No
Format settings, GMC           : No warppoints
Format settings, Matrix        : Default (H.263)
Codec ID                       : XVID
Codec ID/Hint                  : XviD
Duration                       : 1h 22mn
Source duration                : 1h 22mn
Bit rate                       : 1 499 Kbps
Width                          : 704 pixels
Height                         : 528 pixels
Display aspect ratio           : 4:3
Frame rate                     : 25.000 fps
Color space                    : YUV
Chroma subsampling             : 4:2:0
Bit depth                      : 8 bits
Scan type                      : Progressive
Compression mode               : Lossy
Bits/(Pixel*Frame)             : 0.161
Stream size                    : 887 MiB (84%)
Writing library                : XviD 1.1.2 (UTC 2006-11-01)

Audio #1
ID                             : 1
Format                         : MPEG Audio
Format version                 : Version 1
Format profile                 : Layer 3
Mode                           : Joint stereo
Mode extension                 : MS Stereo
Codec ID                       : 55
Codec ID/Hint                  : MP3
Duration                       : 1h 22mn
Bit rate mode                  : Constant
Bit rate                       : 128 Kbps
Channel(s)                     : 2 channels
Sampling rate                  : 48.0 KHz
Compression mode               : Lossy
Stream size                    : 75.7 MiB (7%)
Alignment                      : Split accross interleaves
Interleave, duration           : 24 ms (0.60 video frame)